<svg xmlns="http://www.w3.org/2000/svg" xmlns:xlink="http://www.w3.org/1999/xlink" viewBox="0 0 683.27 244"><defs><style>.cls-1{fill:none;stroke-miterlimit:10;stroke-width:12px;stroke:url(#linear-gradient);}.cls-2{fill:#069;}</style><linearGradient id="linear-gradient" y1="122" x2="683.27" y2="122" gradientUnits="userSpaceOnUse"><stop offset="0" stop-color="#069"/><stop offset="1" stop-color="#16bffd"/></linearGradient></defs><title>Asset 2</title><g id="Layer_2" data-name="Layer 2"><g id="Layer_1-2" data-name="Layer 1"><rect class="cls-1" x="6" y="6" width="671.27" height="232" rx="29.23" ry="29.23"/><g id="text"><path class="cls-2" d="M70,61.92H93c12.73,0,24.81,4.79,24.81,19.38,0,8.38-5,14.91-13.6,16.87v.22c10.77.87,17.41,8,17.41,19.26,0,5-3.26,21.33-28.08,21.33H70Zm7.84,33.75H93.65c7.51,0,15.67-3.6,15.67-13.5,0-3.16-1.63-13.06-16.43-13.06h-15Zm0,36.13h15c11.32,0,20.24-4.46,20.24-14.58s-6.75-15-19.26-15h-16Z"/><path class="cls-2" d="M144.8,139h-7.18V56.7h7.18Z"/><path class="cls-2" d="M186.48,140.29c-15.78,0-27-11.43-27-26.77s11.21-26.78,27-26.78,27.1,11.43,27.1,26.78S202.37,140.29,186.48,140.29Zm0-47c-11.75,0-19.15,8.82-19.15,20.25s7.4,20.24,19.15,20.24,19.27-8.82,19.27-20.24S198.35,93.27,186.48,93.27Z"/><path class="cls-2" d="M228.82,88.05l11.75,41.36h.22l13.6-41.36h7.41l13.6,41.36h.22l11.75-41.36h8.49L279.75,139H271.7L258.2,97.19H258L244.49,139h-8.05L220.33,88.05Z"/><path class="cls-2" d="M312.07,88.05a67.48,67.48,0,0,1,.33,8.16h.22c3.15-5.55,10.34-9.47,17.09-9.47,13,0,19.15,7.29,19.15,19.92V139h-7.18V110.79c0-11.31-3.16-17.52-13.82-17.52-1.53,0-15.46,1-15.46,19.59V139h-7.18V99.26c0-2.72-.33-7.51-.55-11.21Z"/><path class="cls-2" d="M367,139h-9.14l33.52-77.06H399L432.56,139h-9.15l-8.49-20.24h-39.4Zm11.43-27.42h33.42L395.22,71.07Z"/><path class="cls-2" d="M440.61,88.05l11.75,41.36h.22l13.6-41.36h7.4l13.61,41.36h.22l11.75-41.36h8.49L491.54,139h-8.05L470,97.19h-.22L456.28,139h-8.06l-16.1-50.93Z"/><path class="cls-2" d="M549.66,107.75v-1.31c0-8.82-4.25-13.17-13.06-13.17a22.65,22.65,0,0,0-15.57,6l-4.35-5.12c4.68-4.79,12-7.4,21.55-7.4,10,0,18.61,5.66,18.61,18.07v22.75a83.84,83.84,0,0,0,.87,11.42h-7a50.37,50.37,0,0,1-.66-8.27h-.21c-4.14,6.75-9.8,9.58-18,9.58-9,0-17.53-5-17.53-14.91,0-16.54,19.49-17.63,31.68-17.63Zm-3.7,5.87c-7.3,0-23.73.55-23.73,10.78,0,6.75,6.2,9.36,12,9.36,10.45,0,15.46-7.4,15.46-16.43v-3.71Z"/><path class="cls-2" d="M592.43,130.17,608,88.05h8.71l-25.47,64.21c-3.05,7.84-7.18,12.85-16,12.85a22.84,22.84,0,0,1-6.64-.77l.76-7a11.47,11.47,0,0,0,5.45,1.2c5,0,7.61-3.38,9.79-9.15l3.7-9.79-20.9-51.59h9Z"/><path class="cls-2" d="M72.18,151.55h3l-2.41,11.3h.16a13.51,13.51,0,0,1,1.27-1.4,9.77,9.77,0,0,1,1.58-1.25,8.76,8.76,0,0,1,1.85-.89,6.71,6.71,0,0,1,2.14-.33,3.75,3.75,0,0,1,3.39,1.64,7.43,7.43,0,0,1,1.07,4.13,18.52,18.52,0,0,1-1,6.3,15,15,0,0,1-2.6,4.64,11.26,11.26,0,0,1-3.7,2.88,9.75,9.75,0,0,1-4.24,1,13.06,13.06,0,0,1-3.74-.48,6.61,6.61,0,0,1-2.35-1.1Zm6.6,10a4.64,4.64,0,0,0-2,.49,9.49,9.49,0,0,0-2,1.28,12.86,12.86,0,0,0-1.7,1.76,11.67,11.67,0,0,0-1.24,1.88l-2,9.28a5.83,5.83,0,0,0,3.36.83,5.46,5.46,0,0,0,2.64-.77A8.18,8.18,0,0,0,78.42,174a12.34,12.34,0,0,0,1.88-3.64,15.14,15.14,0,0,0,.73-4.91,5.71,5.71,0,0,0-.61-3A1.87,1.87,0,0,0,78.78,161.51Z"/><path class="cls-2" d="M92.41,172.25,92.6,176h.2l1.5-3.83,6.56-12.76H104L94.7,177.07c-.69,1.29-1.37,2.55-2,3.77a28.17,28.17,0,0,1-2.07,3.28,11.42,11.42,0,0,1-2.21,2.31,3.9,3.9,0,0,1-2.37.87,7.86,7.86,0,0,1-1.17-.08,2.81,2.81,0,0,1-.89-.28l1-2.72a2.91,2.91,0,0,0,.95.16,3.27,3.27,0,0,0,2.29-1.19,17.3,17.3,0,0,0,2.57-4l-3.4-19.75h3.16Z"/><path class="cls-2" d="M114.29,169.09a23.75,23.75,0,0,1,1-6.91,18.37,18.37,0,0,1,2.82-5.75,14,14,0,0,1,4.42-3.91,11.63,11.63,0,0,1,5.75-1.44,10.56,10.56,0,0,1,3.52.57,6.91,6.91,0,0,1,2.78,1.82,8.57,8.57,0,0,1,1.82,3.22,15.61,15.61,0,0,1,.65,4.82,24.29,24.29,0,0,1-1,7,19.48,19.48,0,0,1-2.76,5.78,13.67,13.67,0,0,1-4.25,3.93,10.52,10.52,0,0,1-5.43,1.45c-3.11,0-5.44-.91-7-2.71S114.29,172.54,114.29,169.09Zm3.32,0a9.34,9.34,0,0,0,1.54,5.75,5.34,5.34,0,0,0,4.54,2,7.22,7.22,0,0,0,4-1.22,11.25,11.25,0,0,0,3.18-3.32,17.29,17.29,0,0,0,2.07-4.86,22.63,22.63,0,0,0,.73-5.84,12,12,0,0,0-.51-3.8,6.1,6.1,0,0,0-1.36-2.35,4.73,4.73,0,0,0-1.94-1.18,7.52,7.52,0,0,0-2.19-.34,7.24,7.24,0,0,0-4.11,1.25,11,11,0,0,0-3.18,3.33,17.89,17.89,0,0,0-2.07,4.84A21.6,21.6,0,0,0,117.61,169.05Z"/><path class="cls-2" d="M149.24,179.2,151.61,168c.21-.92.37-1.73.48-2.44a13.87,13.87,0,0,0,.16-1.86,2.9,2.9,0,0,0-.4-1.64,1.51,1.51,0,0,0-1.34-.57,4,4,0,0,0-1.94.51,8.65,8.65,0,0,0-1.77,1.28,14.72,14.72,0,0,0-1.53,1.64,11.79,11.79,0,0,0-1.08,1.58l-2.61,12.68h-3l4.19-19.75h2.09l-.24,3.4h.16c.42-.42.88-.86,1.36-1.32a10.57,10.57,0,0,1,1.62-1.25,9.93,9.93,0,0,1,1.94-.93,6.83,6.83,0,0,1,2.31-.37,2.5,2.5,0,0,1,2.39,1.1,6.44,6.44,0,0,1,.61,3.09,17,17,0,0,1,1.38-1.51,11.83,11.83,0,0,1,1.72-1.34,10.21,10.21,0,0,1,2-1,5.92,5.92,0,0,1,2-.37,3.31,3.31,0,0,1,3.75,4,22,22,0,0,1-.59,4.38l-2.49,11.85h-3l2.49-11.89c.16-.76.28-1.44.37-2.05a11,11,0,0,0,.14-1.58,2.59,2.59,0,0,0-.43-1.62,1.75,1.75,0,0,0-1.46-.55,3.49,3.49,0,0,0-1.76.53,10.9,10.9,0,0,0-1.8,1.32,13.1,13.1,0,0,0-1.56,1.7,11.62,11.62,0,0,0-1.09,1.7l-2.56,12.44Z"/><path class="cls-2" d="M173.65,159.45h3l-4.19,19.75h-3Zm.64-6a2.11,2.11,0,0,1,.61-1.54,2,2,0,0,1,1.52-.63,2.15,2.15,0,0,1,2.17,2.17,2,2,0,0,1-.63,1.52,2.13,2.13,0,0,1-1.54.61,2.08,2.08,0,0,1-2.13-2.13Z"/><path class="cls-2" d="M192,177.5a6.33,6.33,0,0,1-1.36.91,10.4,10.4,0,0,1-1.58.67,12.33,12.33,0,0,1-1.6.44,8.16,8.16,0,0,1-1.5.16,7.17,7.17,0,0,1-3.18-.62,5.22,5.22,0,0,1-2-1.56,5.63,5.63,0,0,1-1-2.05,8.42,8.42,0,0,1-.28-2.09,18.54,18.54,0,0,1,.91-6,14.23,14.23,0,0,1,2.43-4.52,10.55,10.55,0,0,1,3.49-2.84,9.55,9.55,0,0,1,6.54-.71,12.45,12.45,0,0,1,1.76.63l-1.11,2.45a5.64,5.64,0,0,0-1.66-.62,10.26,10.26,0,0,0-2.13-.21,4.48,4.48,0,0,0-2.63.91,9.09,9.09,0,0,0-2.27,2.38,13.14,13.14,0,0,0-1.58,3.4,13.42,13.42,0,0,0-.59,3.93,5.61,5.61,0,0,0,1.07,3.79,3.61,3.61,0,0,0,2.88,1.23,6.51,6.51,0,0,0,2.49-.54,10.55,10.55,0,0,0,2.09-1.08Z"/><path class="cls-2" d="M208.45,162.06c-.24-.05-.48-.09-.73-.12s-.48,0-.69,0a5.13,5.13,0,0,0-3.48,1.27,9,9,0,0,0-2.29,3.08l-2.72,12.95h-3l4.18-19.75h2.06v3.4H202a12.33,12.33,0,0,1,1-1.4,7.55,7.55,0,0,1,1.23-1.17,5.63,5.63,0,0,1,1.46-.81,4.8,4.8,0,0,1,1.73-.29,6.64,6.64,0,0,1,1.82.27Z"/><path class="cls-2" d="M209,173a19.08,19.08,0,0,1,.81-5.71,14.25,14.25,0,0,1,2.24-4.44,10.3,10.3,0,0,1,3.29-2.88,8.17,8.17,0,0,1,4-1,6.87,6.87,0,0,1,2.83.53,5,5,0,0,1,1.89,1.46,5.71,5.71,0,0,1,1,2.14,9.85,9.85,0,0,1,.32,2.5,19.25,19.25,0,0,1-.77,5.53,15.08,15.08,0,0,1-2.14,4.47,10.67,10.67,0,0,1-3.18,3,7.58,7.58,0,0,1-3.95,1.09,6.94,6.94,0,0,1-3-.58,5.57,5.57,0,0,1-2-1.52,5.72,5.72,0,0,1-1.11-2.13A8.93,8.93,0,0,1,209,173Zm3.16-.71a6.19,6.19,0,0,0,.87,3.57,3.14,3.14,0,0,0,2.77,1.25,3.9,3.9,0,0,0,2.47-.93,8.44,8.44,0,0,0,2.05-2.51,15.1,15.1,0,0,0,1.42-3.61,16.5,16.5,0,0,0,.54-4.25,6,6,0,0,0-.73-3.18,3.06,3.06,0,0,0-2.79-1.16,4,4,0,0,0-2.49.89,8.41,8.41,0,0,0-2.11,2.39,12.85,12.85,0,0,0-1.46,3.45A15.29,15.29,0,0,0,212.2,172.33Z"/><path class="cls-2" d="M239.81,179.2l2.65-12.48c.11-.47.2-.94.28-1.4a7.39,7.39,0,0,0,.12-1.25,3,3,0,0,0-.54-1.85,2.33,2.33,0,0,0-2-.71,4.56,4.56,0,0,0-2,.47,8.54,8.54,0,0,0-1.85,1.21,10.33,10.33,0,0,0-1.56,1.61,13.08,13.08,0,0,0-1.17,1.76l-2.61,12.64h-3l4.19-19.75h2.05l-.16,3.4h.16a14.41,14.41,0,0,1,1.23-1.32,9.13,9.13,0,0,1,1.6-1.25,9.36,9.36,0,0,1,2-.93,7.59,7.59,0,0,1,2.45-.37,4.69,4.69,0,0,1,3.12,1,4.1,4.1,0,0,1,1.15,3.31,13.82,13.82,0,0,1-.36,2.85l-2.8,13.11Z"/><path class="cls-2" d="M265.61,170l-.36,4.58h0l1.54-4.66,9.28-18.37h1.7L279.27,170l-.35,4.58h0l1.58-4.66L289,151.55h3.24l-13.27,28.09h-1.74l-1.5-18.53.24-4.19h-.16l-1.58,4.23-9.25,18.49H263.2l-1.54-28.09h3.23Z"/><path class="cls-2" d="M289.15,173a19.08,19.08,0,0,1,.81-5.71,14.23,14.23,0,0,1,2.23-4.44,10.44,10.44,0,0,1,3.3-2.88,8.15,8.15,0,0,1,4-1,6.86,6.86,0,0,1,2.82.53,5.07,5.07,0,0,1,1.9,1.46,5.85,5.85,0,0,1,1,2.14,9.85,9.85,0,0,1,.32,2.5,19.25,19.25,0,0,1-.77,5.53,15.06,15.06,0,0,1-2.13,4.47,10.67,10.67,0,0,1-3.18,3,7.63,7.63,0,0,1-3.95,1.09,7,7,0,0,1-3-.58,5.57,5.57,0,0,1-2-1.52,6,6,0,0,1-1.11-2.13A8.92,8.92,0,0,1,289.15,173Zm3.16-.71a6.19,6.19,0,0,0,.87,3.57,3.12,3.12,0,0,0,2.76,1.25,3.9,3.9,0,0,0,2.47-.93,8.29,8.29,0,0,0,2-2.51,15.11,15.11,0,0,0,1.43-3.61,17,17,0,0,0,.53-4.25,6,6,0,0,0-.73-3.18,3.06,3.06,0,0,0-2.79-1.16,4,4,0,0,0-2.49.89,8.41,8.41,0,0,0-2.11,2.39,13.18,13.18,0,0,0-1.46,3.45A15.29,15.29,0,0,0,292.31,172.33Z"/><path class="cls-2" d="M323.47,159.45,325.33,171l.16,3.79h0l1.55-3.87,5.83-11.46h3l-10.62,20.19h-1.5l-2.1-13,0-3.24h-.07l-1.47,3.28-7.5,13h-1.42l-2.29-20.19h3l1.23,11.5-.08,3.83h.16l1.61-3.91,6.52-11.42Z"/></g></g></g></svg>